<svg height="597pt" viewBox="-52 -18 597 597.33331" width="597pt" xmlns="http://www.w3.org/2000/svg"><path d="m414.496094 280.058594c-16.070313-14.769532-32.941406-28.652344-50.527344-41.578125.714844 13.519531 1.117188 27.386719 1.117188 41.519531s-.402344 28.050781-1.128907 41.640625c17.613281-12.898437 34.484375-26.78125 50.539063-41.582031zm0 0"/><path d="m245.179688 415.070312c-25.953126 12.175782-52.710938 22.542969-80.09375 31.019532 19.449218 71.46875 50.359374 113.910156 80 113.910156 29.636718 0 60.570312-42.46875 80-114-27.308594-8.476562-54.007813-18.808594-79.90625-30.929688zm0 0"/><path d="m340.648438 362.078125c-11.425782 7.445313-23.28125 14.722656-35.5625 21.851563-12.28125 7.125-24.476563 13.730468-36.601563 19.820312 20.046875 8.753906 40.570313 16.382812 61.46875 22.84375 4.769531-21.289062 8.339844-42.828125 10.695313-64.515625zm0 0"/><path d="m149.515625 362c2.363281 21.8125 5.957031 43.476562 10.761719 64.890625 20.957031-6.546875 41.527344-14.273437 61.621094-23.132813-12.28125-6.238281-24.570313-12.757812-36.8125-19.757812-12.242188-7-24-14.460938-35.570313-22zm0 0"/><path d="m465.085938 350c-16.566407 0-30-13.433594-30-30 .035156-5.28125 1.480468-10.460938 4.179687-15-3.398437-3.691406-6.832031-7.367188-10.488281-11.058594-20.976563 19.382813-43.257813 37.304688-66.691406 53.628906-2.421876 28.410157-6.789063 56.617188-13.078126 84.429688 12.488282 3.289062 24.710938 6.070312 36.378907 8 52.667969 8.539062 89.878906 1.257812 102.128906-20 9.429687-16.320312 4.210937-41.480469-14.308594-71.269531-2.632812.800781-5.367187 1.226562-8.121093 1.269531zm0 0"/><path d="m348.9375 127.660156c6.332031 27.960938 10.726562 56.324219 13.148438 84.886719 23.449218 16.355469 45.769531 34.273437 66.796874 53.632813 52.144532-52.5625 73.503907-100.519532 58.691407-126.179688-14.808594-25.660156-67.019531-31.210938-138.636719-12.339844zm0 0"/><path d="m475.085938 320c0 5.523438-4.476563 10-10 10-5.523438 0-10-4.476562-10-10s4.476562-10 10-10c5.523437 0 10 4.476562 10 10zm0 0"/><path d="m265.085938 280c0 11.046875-8.957032 20-20 20-11.046876 0-20-8.953125-20-20s8.953124-20 20-20c11.042968 0 20 8.953125 20 20zm0 0"/><path d="m141.238281 432.339844c-6.339843-27.960938-10.734375-56.324219-13.15625-84.886719-23.445312-16.355469-45.765625-34.273437-66.796875-53.632813-52.136718 52.5625-73.5 100.519532-58.691406 126.179688 14.8125 25.660156 67.023438 31.210938 138.644531 12.339844zm0 0"/><path d="m25.085938 210c10.761718.007812 20.691406 5.777344 26.023437 15.121094 5.339844 9.339844 5.265625 20.824218-.195313 30.097656 3.332032 3.609375 6.921876 7.222656 10.5 10.832031 20.972657-19.378906 43.246094-37.296875 66.667969-53.621093 2.421875-28.410157 6.792969-56.617188 13.082031-84.429688-12.488281-3.289062-24.707031-6.070312-36.375-8-52.664062-8.550781-89.894531-1.269531-102.136718 20-9.425782 16.320312-4.386719 41.402344 14.121094 71.179688 2.703124-.78125 5.5-1.179688 8.3125-1.179688zm0 0"/><path d="m75.746094 279.878906c16.042968 14.789063 32.890625 28.683594 50.457031 41.621094-.71875-13.5-1.117187-27.378906-1.117187-41.5s.398437-28 1.132812-41.640625c-17.589844 12.886719-34.4375 26.75-50.472656 41.519531zm0 0"/><path d="m149.523438 197.921875c11.4375-7.445313 23.292968-14.722656 35.5625-21.851563 12.273437-7.125 24.472656-13.730468 36.601562-19.820312-20.050781-8.753906-40.570312-16.382812-61.46875-22.84375-4.773438 21.289062-8.339844 42.828125-10.695312 64.515625zm0 0"/><path d="m25.085938 230c-2.054688-.035156-4.066407.621094-5.707032 1.859375-.105468.070313-.222656.078125-.3125.152344-2.539062 1.859375-4.023437 4.839843-3.980468 7.988281 0 5.523438 4.476562 10 10 10 2.273437.003906 4.476562-.78125 6.238281-2.222656 3.292969-2.65625 4.558593-7.097656 3.15625-11.089844-1.402344-3.992188-5.160157-6.667969-9.394531-6.6875zm0 0"/><path d="m345.085938 280c0-19.601562-.726563-38.417969-2.0625-56.421875-15.324219-10.488281-31.328126-20.640625-47.9375-30.21875-16.613282-9.578125-33.390626-18.429687-50-26.421875-16.28125 7.863281-32.945313 16.679688-50 26.460938-17.003907 9.835937-33 19.921874-47.929688 30.113281-1.339844 18.015625-2.070312 36.859375-2.070312 56.488281s.730468 38.398438 2.058593 56.402344c15.34375 10.488281 31.320313 20.648437 47.941407 30.238281 16.621093 9.589844 33.386718 18.429687 50 26.421875 16.277343-7.863281 32.949218-16.679688 50-26.460938 17-9.835937 32.996093-19.921874 47.929687-30.113281 1.34375-18.015625 2.070313-36.859375 2.070313-56.488281zm-100 40c-22.089844 0-40-17.910156-40-40s17.910156-40 40-40c22.089843 0 40 17.910156 40 40s-17.910157 40-40 40zm0 0"/><path d="m244.96875 144.921875c25.960938-12.171875 52.730469-22.542969 80.117188-31.03125-19.457032-71.460937-50.363282-113.890625-80-113.890625-29.640626 0-60.570313 42.46875-80 114 27.300781 8.46875 53.988281 18.804688 79.882812 30.921875zm0 0"/><path d="m340.65625 198c-2.363281-21.8125-5.957031-43.476562-10.761719-64.890625-20.957031 6.546875-41.527343 14.273437-61.621093 23.132813 12.28125 6.238281 24.570312 12.757812 36.8125 19.757812 12.242187 7 24 14.460938 35.570312 22zm0 0"/></svg>